<mxfile host="65bd71144e">
    <diagram id="b6gOKG302vwguQZOdsVM" name="Page-1">
        <mxGraphModel dx="60" dy="465" grid="1" gridSize="10" guides="1" tooltips="1" connect="1" arrows="1" fold="1" page="1" pageScale="1" pageWidth="850" pageHeight="1100" math="0" shadow="0">
            <root>
                <mxCell id="0"/>
                <mxCell id="1" parent="0"/>
                <mxCell id="lWq--blpVDVgCPZz2or--25" value="" style="edgeStyle=none;html=1;fontSize=18;" parent="1" source="12" target="lWq--blpVDVgCPZz2or--24" edge="1">
                    <mxGeometry relative="1" as="geometry"/>
                </mxCell>
                <mxCell id="12" value="&lt;span style=&quot;font-size: 18px;&quot;&gt;HTML&lt;/span&gt;" style="rounded=0;whiteSpace=wrap;html=1;fillColor=#008a00;fontColor=#ffffff;strokeColor=#005700;" parent="1" vertex="1">
                    <mxGeometry x="330" width="110" height="40" as="geometry"/>
                </mxCell>
                <mxCell id="lWq--blpVDVgCPZz2or--35" value="" style="edgeStyle=none;html=1;fontSize=18;" parent="1" source="lWq--blpVDVgCPZz2or--24" target="lWq--blpVDVgCPZz2or--34" edge="1">
                    <mxGeometry relative="1" as="geometry"/>
                </mxCell>
                <mxCell id="lWq--blpVDVgCPZz2or--24" value="&lt;span style=&quot;font-size: 18px;&quot;&gt;Body&lt;/span&gt;" style="rounded=0;whiteSpace=wrap;html=1;fillColor=#008a00;fontColor=#ffffff;strokeColor=#005700;" parent="1" vertex="1">
                    <mxGeometry x="550" y="80" width="110" height="40" as="geometry"/>
                </mxCell>
                <mxCell id="lWq--blpVDVgCPZz2or--29" value="&lt;span style=&quot;font-size: 18px;&quot;&gt;title&lt;/span&gt;" style="rounded=0;whiteSpace=wrap;html=1;fillColor=#008a00;fontColor=#ffffff;strokeColor=#005700;" parent="1" vertex="1">
                    <mxGeometry x="260" y="170" width="110" height="40" as="geometry"/>
                </mxCell>
                <mxCell id="lWq--blpVDVgCPZz2or--34" value="&lt;font style=&quot;font-size: 18px;&quot;&gt;[All Tags]&lt;br&gt;&lt;br&gt;&lt;/font&gt;" style="rounded=0;whiteSpace=wrap;html=1;fillColor=#008a00;strokeColor=#005700;fontColor=#ffffff;" parent="1" vertex="1">
                    <mxGeometry x="537.5" y="170" width="135" height="49" as="geometry"/>
                </mxCell>
                <mxCell id="13" value="&lt;span style=&quot;font-size: 36px;&quot;&gt;classical language:- C#,java and js&amp;nbsp;&lt;/span&gt;" style="whiteSpace=wrap;html=1;aspect=fixed;" vertex="1" parent="1">
                    <mxGeometry x="10" y="20" width="240" height="240" as="geometry"/>
                </mxCell>
            </root>
        </mxGraphModel>
    </diagram>
</mxfile>